{"title":"The Presence-AC3-XviD-DVDRip 2010 TBS","uid":6416450,"size":733920560,"categoryP":"video","categoryS":"movies","magnet":"?xt=urn:btih:40246a4ec832110dba2cd330c4bf531f18ed138b&amp;dn=The+Presence-AC3-XviD-DVDRip+2010+TBS&amp;tr=udp%3A%2F%2Ftracker.openbittorrent.com%3A80&amp;tr=udp%3A%2F%2Fopen.demonii.com%3A1337&amp;tr=udp%3A%2F%2Ftracker.coppersurfer.tk%3A6969&amp;tr=udp%3A%2F%2Fexodus.desync.com%3A6969","seeders":0,"leechers":1,"uploader":"FatFreddy30","files":-1,"time":1306179091,"description":"In this darkly romantic ghost story, a woman (Academy Award Winner Mira Sorvino) travels to an isolated cabin where she finds herself stalked by an apparition (Shane West) ... \n &lt;a href=&quot;\nhttp://www.imdb.com/title/tt1298594/&quot; rel=&quot;nofollow&quot; target=&quot;_NEW&quot;&gt;\nhttp://www.imdb.com/title/tt1298594/&lt;/a&gt;\n\nSubs: Dutch (srt).\n\n\nEen vrouw reist af naar een afgelegen hut waar ze gestalkt wordt door een geest. Met de onverwachte komst van de vriend van de vrouw groeit de obsessieve spirituele kwelling. Al snel begint de vrouw vreemd irrationeel gedrag te vertonen wanneer de dunne lijn tussen gezond verstand en beheersing zich begint te ontrafelen.\n &lt;a href=&quot;\nhttp://www.moviemeter.nl/film/70371&quot; rel=&quot;nofollow&quot; target=&quot;_NEW&quot;&gt;\nhttp://www.moviemeter.nl/film/70371&lt;/a&gt;\n\nOndertitels: Nederlands (srt).\n\nOriginal name: The.Presence.2010.FESTiVAL.DVDRip.XviD-iLG + Syncfix. Thanks!\n\nGeneral\nComplete name                    : The Presence-AC3-DVDRip 2010.avi\nFormat                           : AVI\nFormat/Info                      : Audio Video Interleave\nFile size                        : 700 MiB\nDuration                         : 1h 23mn\nOverall bit rate                 : 1 174 Kbps\nWriting application              : VirtualDubMod 1.5.4.1 (build 2178/release)\nWriting library                  : VirtualDubMod build 2178/release\n\nVideo\nID                               : 0\nFormat                           : MPEG-4 Visual\nFormat profile                   : Advanced Simple@L5\nFormat settings, BVOP            : Yes\nFormat settings, QPel            : No\nFormat settings, GMC             : No warppoints\nFormat settings, Matrix          : Default (H.263)\nCodec ID                         : XVID\nCodec ID/Hint                    : XviD\nDuration                         : 1h 23mn\nBit rate                         : 972 Kbps\nWidth                            : 608 pixels\nHeight                           : 336 pixels\nDisplay aspect ratio             : 16:9\nFrame rate                       : 25.000 fps\nResolution                       : 8 bits\nColorimetry                      : 4:2:0\nScan type                        : Progressive\nBits/(Pixel*Frame)               : 0.190\nStream size                      : 579 MiB (83%)\nWriting library                  : XviD 1.2.1 (UTC 2008-12-04)\n\nAudio\nID                               : 1\nFormat                           : AC-3\nFormat/Info                      : Audio Coding 3\nCodec ID                         : 2000\nDuration                         : 1h 23mn\nBit rate mode                    : Constant\nBit rate                         : 192 Kbps\nChannel(s)                       : 2 channels\nChannel positions                : L R\nSampling rate                    : 48.0 KHz\nVideo delay                      : 372ms\nStream size                      : 114 MiB (16%)\nAlignment                        : Split accross interleaves\nInterleave, duration             : 40 ms (1.00 video frame)\nInterleave, preload duration     : 500 ms\n\nEnjoy..\n\nTBS.\n\nThanks to iLG and Simply ReleaseS Toppers.","torrent":{"xt":"urn:btih:40246a4ec832110dba2cd330c4bf531f18ed138b","amp;dn":"The+Presence-AC3-XviD-DVDRip+2010+TBS","amp;tr":["udp%3A%2F%2Ftracker.openbittorrent.com%3A80","udp%3A%2F%2Fopen.demonii.com%3A1337","udp%3A%2F%2Ftracker.coppersurfer.tk%3A6969","udp%3A%2F%2Fexodus.desync.com%3A6969"],"infoHash":"40246a4ec832110dba2cd330c4bf531f18ed138b","infoHashBuffer":{"type":"Buffer","data":[64,36,106,78,200,50,17,13,186,44,211,48,196,191,83,31,24,237,19,139]},"announce":[],"urlList":[]}}